<svg viewBox="0 0 35 33" class="fill-current transition text-black w-8 h-6 | lg:w-9 lg:h-8">
<path d="M.107 19.722a5.088 5.088 0 0 1 1.617-.084c2.663.763 5.34 1.396 7.927 2.372 3.876 1.473 7.713 3.052 11.444 4.837a19.71 19.71 0 0 1 4.204 3.052 1.732 1.732 0 0 1 .374 1.633 1.8 1.8 0 0 1-1.564.64 15.77 15.77 0 0 1-3.754-1.22 691.449 691.449 0 0 1-14.686-7.301c-1.93-1-3.785-2.136-5.669-3.212l.107-.717ZM16.708 0c.539.134 1.053.35 1.526.64 2.052 1.84 4.173 3.632 6.05 5.647 2.823 3.051 5.547 6.172 8.133 9.414a20.022 20.022 0 0 1 2.41 4.623 1.755 1.755 0 0 1-.396 1.633 1.8 1.8 0 0 1-1.686-.114 16.124 16.124 0 0 1-2.853-2.77 725.989 725.989 0 0 1-9.919-13.107c-1.289-1.732-2.449-3.578-3.662-5.34L16.708 0Z"></path>
</svg>